<svg id="icon3" version="1" xmlns="http://www.w3.org/2000/svg" viewBox="0 0 700 700"><path d="M274 1.6c0 2.3-3.2 7.4-4.7 7.4-2.6 0-1.2 2.8 3.1 5.8 2.9 2.1 5.6 3.2 7.9 3.2 5.9 0 11.8 4.1 15.9 11.2 3 5.1 3.9 7.9 4.8 15.2.6 4.9 2.2 11.4 3.4 14.5 1.3 3.1 2.9 7.6 3.6 10 1.6 6.2 9.1 13.5 16.1 15.5 7.3 2.2 13.7 2 17.7-.4 2.9-1.8 3.3-2.5 2.8-4.6-1.3-5-3.7-7.4-9-8.9-5.5-1.6-12-7.2-14.8-13-.9-1.7-2.3-4.4-3.2-6-.9-1.7-1.6-4.8-1.6-7 0-5.7-1.9-16.6-3.3-19.1-.7-1.2-2.4-4.4-3.9-7.1-2.8-5.2-7.2-9.6-12.7-12.6-1.8-.9-3.5-2.6-3.8-3.7-.5-1.8-1.4-2-9.4-2-7.5 0-8.9.3-8.9 1.6zM462 11.4c-1.4 1.9-3.3 3.7-4.2 4-2.6.6-2.2 3.1.7 4.4 1.5.7 3.6 3.4 5.1 6.5l2.6 5.3-2.7 5.4c-3.6 7.1-8.2 12.5-18.5 21.7-4.7 4.2-9.6 9.3-11 11.3-1.4 2.1-3.4 4.9-4.4 6.4-2.5 3.6-3.7 11.6-3 19.4.6 5.9 1 6.5 5.8 11.2 2.8 2.8 5.6 5 6.2 5 1.6 0 9.4-8.6 9.4-10.4 0-.7-.7-1.9-1.6-2.7-2.1-1.8-4.4-6.4-4.4-9 0-3.4 6.1-11.8 14.5-19.9 4.3-4.1 10-9.7 12.8-12.4 3.1-3.1 5.7-6.7 6.9-9.9 1.1-2.8 2.8-6.3 3.9-7.8 1.4-2.1 1.9-4.4 1.9-9.7 0-5.9-.4-7.5-2.4-9.9-1.3-1.5-3-4.2-3.9-5.9-2.1-4-3.5-5.1-7.8-5.9-3.2-.6-3.7-.4-5.9 2.9zM89.8 17.6c-2.2 1-5.3 3.7-8 7.2l-4.3 5.7v21l4.8 7c10.2 14.9 9.8 14.3 19.1 24.9 3.2 3.5 5.6 9.4 5.8 14.1.1 1.1-.7 5.3-1.7 9.4-1.6 6.6-1.7 7.7-.4 10 1.2 2.1 2.3 2.7 5.8 2.9 5.1.4 6-.3 10.3-7.6 2.9-5.1 3.3-6.5 3.2-13.2-.1-6.2-.6-8.6-3.1-13.7-1.7-3.4-4.3-7.7-5.9-9.6-1.6-1.9-4.7-5.8-6.9-8.7-2.2-2.9-5.2-6.7-6.6-8.4-1.4-1.7-3.4-4.7-4.4-6.6-1-1.9-2.6-4.6-3.6-5.9-2.7-3.4-2.4-6.2 1.1-10.6 1.7-2.1 3-4.2 3-4.7s1.4-2.2 3.1-3.8c3-2.7 3.2-5 .4-5-.7 0-2.5-1.4-3.8-3-2.9-3.4-2.9-3.4-7.9-1.4zM608.1 21.1c-5 2-11.5 9.2-13.9 15.4-5.8 14.8-5.7 13.6-3.3 23.8 2.4 10.8 3.7 23.9 2.7 29.2-.9 4.4-7.9 12.4-14.3 16.2-2.4 1.4-4.3 2.6-4.3 2.8 0 .1 1.1 2.3 2.5 4.7 3.1 5.6 6.3 7.2 11.4 5.8 4.1-1.1 12.5-8.6 15.6-14 1.1-1.8 2.6-4.3 3.2-5.5 1.9-3.1 1.5-20.5-.7-33.2-1.9-11.2-1.9-11.3 0-17.6 2.2-7.2 4-9.1 11.3-12.7 5.1-2.5 5.2-2.6 5.5-7.4.4-6.6-1.5-8.6-8.2-8.5-2.8 0-6.2.5-7.5 1zM397.3 23c-5.8 3.5-7.9 11-4.8 16.9 1 2 2.7 3.2 5.9 4.1 4.2 1.1 4.9 1.1 9.3-1.1 4.8-2.4 4.8-2.4 5.1-8 .3-5.5.2-5.6-4.2-9.7-5.1-4.7-6.7-5-11.3-2.2zM226.2 48.6c-1.5 1-2.2 2.5-2.2 4.9 0 5.9 1.4 8.2 5.7 8.9 6.3 1.1 6.7 1.4 10.8 6.3l4 4.8.5 24.6.5 24.6 3 3.7c8.8 10.8 10.8 12.6 15.9 14.2 4.6 1.4 5.8 1.5 10.1.2 4-1.1 5.1-1.8 5.3-3.7.7-4.4-1.9-8.2-6.9-10.5-3.3-1.5-5.9-3.8-8.8-7.6l-4.1-5.4V92c0-11.8-.5-23.1-1-25-1.5-5.4-13.4-17.6-18.5-18.9-5.7-1.5-11.7-1.4-14.3.5zM518.5 53c-.8 1.6-2.7 3.7-4 4.6-3.9 2.5-3.1 5.6 3.5 12.6 4.4 4.9 8 5 13.9.7 7.5-5.6 7.9-10 1.6-16.4-4-4-5.1-4.5-9-4.5-3.9 0-4.6.3-6 3zM33.1 60.2c-7.1 6-6.8 11.1 1.1 16.8 3.4 2.5 5 3.1 7.7 2.6 5.2-.8 10.1-6.4 10.1-11.7 0-2.4-3.5-8.7-5.8-10.7-3.2-2.5-7.7-1.4-13.1 3zM670.8 83.7c-4.4 3.4-4.8 4.1-4.8 7.9 0 3.4.5 4.5 2.8 6 1.5 1 3.5 2.8 4.5 4.1 3 3.7 8.7 3 12.3-1.6 1.5-2 3.4-4 4.1-4.4 2.8-1.7 1.2-7-4-12.5-4.3-4.5-8.6-4.4-14.9.5zM368.6 95.7c-5 5.3-5.3 6.1-3.1 10.3 3.2 6.2 12.2 9.7 16.9 6.7 1.3-.9 3.5-3.7 4.9-6.2l2.6-4.6-3.5-4.9c-3.8-5.3-5-6-9.9-6-2.7 0-4.2.9-7.9 4.7zM165.3 96.5c-10.1 4.4-6.3 22.5 4.8 22.5 1.1 0 4.2-1.9 7-4.3 5.1-4.4 5.9-6.8 4-12.1-1-2.5-8.6-7.6-11.2-7.6-.8.1-2.8.7-4.6 1.5zM18.5 132.9c-2.3.5-3.6 1.8-6 6l-3 5.5.5 40c.5 37.8.6 40.4 2.6 45.5 1.2 2.9 3.4 6.8 4.8 8.5 4.1 4.7 7.4 9.6 9.7 14.6 1.2 2.5 3.6 6.1 5.3 8.1 1.7 2 4 5.1 5.1 6.9 4.6 7.7 6.2 10.1 8.3 12.3l2.2 2.3v89c0 63.7.3 89.9 1.1 92.2 1.2 3.4 6.9 7.2 10.9 7.2s9-2.8 10.1-5.7c.7-1.8 1-18.4.9-48.6l-.1-45.8 3-2.9c3.8-3.9 8.7-4.1 12.1-.5l2.3 2.4-.1 44.3c-.1 40.7 0 44.7 1.7 48.8 1.2 3.2 2.8 5 5.2 6.2 4.4 2.3 7.1 2.3 11.9-.2 6.3-3.2 6.2-2.4 5.8-95.3-.1-45.2.1-82.8.5-83.5.5-.6 1.4-1.2 2-1.2 2.6.1 8.6 6.8 12.2 13.5l3.8 7-.2 85.7c-.2 58.7.1 86.9.9 89.7 1.8 6.7 10.1 12.1 13.6 8.7.9-.9 2.8-2.3 4.4-3.1 1.5-.8 3.1-2.2 3.5-3.2.4-1 .6-22.1.5-47-.1-49.8-.2-49.8 6-52.3 4-1.6 7.3-.2 9.5 4 1.4 2.8 1.6 8.3 1.4 46.8-.2 38.8 0 44.1 1.4 46.7 2.7 4.9 4.2 6.4 8.1 8l3.6 1.5 5.5-4.1 5.5-4.1v-89c0-97.3-.1-95.8 5.5-95.8 3.8 0 6.2 1.6 7.1 4.7.5 1.6.8 14.7.8 29.3-.5 110.2-.3 145.8.6 149.2 2 6.9 8.6 10.2 15 7.3 8-3.6 7.5 0 7.7-52.9l.2-47.1 3.1-2.7c1.6-1.6 3.9-2.8 5-2.8 2.3 0 5.7 3.1 6.9 6.3.8 2.4.6 69.1-.3 70.5-.3.5-.1 2.6.5 4.6.7 2.6.7 4.7-.1 7.1-1.4 4.1.3 8.8 5.5 15 3 3.7 3.8 4.1 6.7 3.7 1.8-.2 5.4-2 8.1-3.9l4.7-3.5v-33.7c0-18.6.3-37.8.6-42.7l.6-8.9-4.3-5.5c-2.3-3-7.2-8.7-10.8-12.5-3.6-3.9-11.3-12.2-17.1-18.4-5.8-6.3-12-12.9-13.7-14.7-1.8-1.8-3.3-3.9-3.3-4.5 0-.7-1.4-4.1-3.1-7.7-3.1-6.2-3.2-6.8-2.6-15.7.4-5.7 1.4-11.3 2.7-14.5 1.1-2.8 2.5-8.6 3.1-12.7.6-4.2 2.1-10 3.5-13.1 1.9-4.3 2.2-5.8 1.2-6.9-.6-.8-1.7-1.2-2.4-.9-1.4.5-6.4-3-6.4-4.5 0-2.4 6.6-9.6 10.6-11.7 2.6-1.3 5.4-3.8 6.5-5.6 3.2-5.5 13-13.2 23.7-18.6 10-5.1 12.2-7.1 10.1-9.6-.7-.8-1-6.9-.8-17.6.2-14.8.1-16.7-1.8-20.3-4.6-8.8-9.4-10.3-16.8-5.2l-5 3.4-.5 9.4c-.5 10.1-1.9 13.9-5.1 13.9-2.9 0-7.5-2.6-8.4-4.7-.4-1-.7-10-.6-20 .2-14.7-.1-18.7-1.3-21.1-1.6-3.1-7.2-7.2-9.8-7.2-2 0-8.9 5.5-10.6 8.3-.9 1.7-1.2 11.2-1 41.1l.2 38.9-3.4 2.9c-5 4.2-7.8 3.5-10.9-2.7l-2.6-5 .3-34.8c.3-33.6.2-35-1.8-39-3.1-6.3-5.5-8.8-9.3-9.4-3.1-.5-4 0-8.7 4.5l-5.2 5 .4 18.4c.3 16.2.1 18.7-1.5 21.1-1.9 3-6.9 4.7-10.7 3.7-4.2-1.1-4.6-4.9-4-36 .5-28 .5-28.5-1.6-31-1.2-1.4-2.9-3.7-3.8-5.1-1.9-3-6.6-4.2-10.5-2.7-1.3.5-4.1 2.8-6.1 5.1l-3.8 4.2.5 36.5c.6 39.4.2 43.7-4.2 46.6-5.6 3.7-10.6-1.1-8.6-8.3.6-2.1 1.1-13.6 1.1-25.9 0-17.4-.3-23.1-1.5-26.5-2-5.6-5-8.7-9.2-9.5-2.8-.5-3.7-.2-6.1 2.2-1.5 1.6-3.8 3.7-5.1 4.7-2 1.6-2.3 2.6-2.1 8.5.3 10.3.2 11-2.5 12.8-2 1.3-3.1 1.4-5.5.5-4.5-1.5-17.1 4-22.7 10-3.6 3.8-4.3 5.3-5.1 11-2 13.6 2.2 22.3 14.1 29.3 3.8 2.3 5.8 2.7 11.5 2.7 8.7 0 10.7 1.2 10.7 6.9 0 3.3-.6 4.7-2.5 6.2-2.2 1.8-3.7 1.9-16 1.6l-13.5-.3-4.8-4c-2.6-2.1-4.9-4.7-5.2-5.6-.3-1-2.1-3.7-4-6.1-1.9-2.3-3.5-4.8-3.5-5.5 0-.7-1.3-2.7-3-4.6-1.6-1.9-3.4-4.7-4-6.3-.8-1.9-1.1-15.1-.9-39.9.1-24.1-.2-37.8-.9-39.1-2.9-5.3-9.1-8.5-14.7-7.5zm123.8 119.2c1.2.6 3.3 2.2 4.7 3.4 3.7 3.4 9.6 4.9 18.5 4.7 7.9-.2 8-.2 11.7 3.5 4.2 4.1 4.9 7.6 1.7 9.3-1.3.7-8.2 1-19.9.8-16.2-.3-18.1-.5-20.6-2.4-4.8-3.6-6.7-7-6.6-11.5.3-7.7 4.6-10.8 10.5-7.8zM551.5 145.3c-6.6 3.7-6.6 3.6-6.3 38.1l.2 30.8-2.4 2c-3.1 2.5-10.2 2-13.2-1-1.9-1.9-2.1-3.2-1.9-17.3.1-8.4.4-15.6.7-16.1.3-.5-.8-3.7-2.4-7.3-2.9-6-3.3-6.4-7.4-7.3-3.3-.6-5.4-.5-8.8.7-6.8 2.5-6.9 3.3-6.8 46.2.1 35.7 0 36.8-2 40-5.7 9-5.4 7.8-5.4 31.3 0 12.2.5 23.3 1 24.7.6 1.4 2.2 4.2 3.6 6.3l2.5 3.8-.3 85.1c-.2 48.2.1 87.2.6 89.8 1.3 6.7 2.7 8.1 8.4 8.6s10.8-2.1 12.4-6.3c.6-1.5 1-21 1-48.4 0-52.6-.4-50.2 8.4-50.4 3.9-.1 5.1.3 6.7 2.3 1.9 2.4 2 4.1 1.8 47.5l-.1 45.1 3.2 5.3c3.2 5.1 3.4 5.2 8.1 5.2 5 0 9.7-2.8 12.1-7.3.7-1.5 1-27.1.9-89.8-.2-66 .1-88.8 1-91.8.6-2.2 2.5-5.2 4-6.7 1.6-1.5 2.9-3.3 2.9-3.9 0-2.4 3.8-4.6 7.2-4.3 2.7.2 3.4.7 3.6 3 .2 1.5-.2 3.6-.8 4.8-.8 1.4-1.2 26.2-1.6 82.7l-.4 80.5 4 4.4c2.2 2.4 4 4.8 4 5.4 0 .5 2.1 1 4.6 1 4.2 0 5-.4 8.9-4.7l4.4-4.8.1-46.1c0-42.5.1-46.3 1.8-48.3 2.7-3.3 7.4-3.7 10.6-.9l2.8 2.4-.1 46.4-.2 46.5 4.9 4.8c4.5 4.4 5.2 4.8 9.1 4.5 4-.3 4.5-.7 7.8-6.1l3.6-5.7-.2-61.8c-.1-33.9-.3-72.5-.5-85.7-.3-21.8-.1-24.5 1.6-29 1.1-2.8 3.2-6.4 4.7-8 1.5-1.7 3.3-4.3 4-5.9.7-1.6 2.3-4.3 3.7-6 5.1-6.3 9.2-12.4 9.9-14.7.4-1.3 2.1-4 3.7-5.9 4.8-5.7 9.7-13.9 10.7-17.8 1.1-4.2 1.3-77.9.3-83.3-.6-2.9-1.6-3.8-6-6.1-4.8-2.4-5.6-2.6-8.9-1.4-2.1.7-4.6 2.5-5.8 4-1.9 2.7-2 4.1-2 40.6l-.1 37.8-2.9 4.4c-1.6 2.3-3.9 5.4-5.1 6.8-1.3 1.4-3 4.3-4 6.5-.9 2.2-3.2 5.7-5 7.8-1.9 2-3.4 4.2-3.4 4.7 0 .6-2 1.9-4.4 3-5.8 2.4-27.2 2.8-31.7.5-3.4-1.8-4.6-5.5-2.9-9.4 1.5-3.8 4.8-5.1 13.1-5.1 10.6 0 13.4-1.7 22.7-13.9 5.2-6.8 5.3-13.1.5-20.6-1.5-2.3-3.5-5.7-4.5-7.3-.9-1.7-3.5-4.3-5.7-5.7-3.4-2.3-5.6-2.8-13.6-3.5-12.1-.9-12.7-1.4-12.6-10.9.1-12.4-3-17.1-11.3-17.1-5.8 0-10.2 2.5-11 6.1-.3 1.7-.6 15.9-.6 31.6 0 17.7-.4 29.2-1 30.4-1.6 3-4.4 2.3-8.4-2.1l-3.6-4-.1-13.8c-.2-19.5-.1-36.8.1-50.7.2-14.5-.6-16.9-6.2-19.5-5.4-2.4-5.5-2.4-10.3.3zm11.2 118.9c4.8 4.6 4.4 7.6-1.4 13.7l-4.8 4.9-18 .4c-9.9.3-18.8.1-19.7-.4-1.2-.6-1.8-2-1.8-4.1 0-6.3 3.1-7.8 14.7-7.5 8.7.3 8.9.2 15-3.6 3.5-2.1 6.8-4.5 7.4-5.2 1.9-2.3 5.1-1.6 8.6 1.8z"/><path d="M446.3 147.8c-1.2.4-4.3 3.1-6.8 6-2.5 3-4.6 5.4-4.7 5.5-.1.1-.5 34.2-.8 75.8l-.5 75.6-3.5 4.1c-5.3 6.2-7.5 9.3-9.8 13.8-1.1 2.2-2.8 4.7-3.8 5.5-.9.8-2.4 3-3.3 4.9-.9 2-2.6 4.9-3.9 6.5-1.3 1.7-3.3 4.6-4.5 6.5-1.7 2.6-3.3 3.8-6.4 4.5-2.5.6-18.5.8-42.5.5l-38.5-.5-12.2-12.5c-6.7-6.9-12.7-13-13.2-13.5-.5-.6-3.2-3.3-5.9-6-4.1-4.1-5-5.6-5-8.5 0-1.9.7-4.6 1.5-6 2.9-5 3.5-7.2 4.6-16.3.8-6.1 2-10.8 3.7-14l2.5-4.7-3.9-7.6c-3.4-6.6-4.5-7.8-8.7-10-5.6-2.8-8.4-2.9-14.9-.6-3.3 1.2-6 3.2-9.1 6.9-4.1 4.8-4.5 5.6-5.1 12.7-.4 4.4-1.6 9.7-3.1 12.8-1.3 2.9-2.8 9.3-3.5 14.2-.6 4.9-2.2 11.6-3.6 14.7-1.3 3.2-2.4 6.5-2.4 7.2 0 4.1 8 15.8 16.9 25 17.6 18 30.6 31.5 32.6 33.9 1.1 1.2 6.7 7.2 12.4 13.3 15.6 16.7 14.2 11.4 14 50.5-.1 18.4-.6 34.6-1.1 36-.5 1.3-3.6 5.4-6.9 9-3.2 3.6-7.4 8.3-9.3 10.5-1.9 2.2-5 5.8-7 8-2 2.1-3.6 4.3-3.6 4.7 0 .4-2.9 4-6.3 8-3.5 4-7.2 8.8-8.1 10.5-.9 1.8-2 3.3-2.4 3.3-1.1 0-16.6 17.9-18.2 21-.7 1.4-2.4 3.8-3.7 5.5-4.9 6.1-9.3 13.8-9.3 16.1 0 3.4 7.6 15.9 12 19.6 7.1 6.1 17.6 15.4 21.1 18.8 25 24.1 34.7 31.4 41.1 31.3 2.1 0 4.8-.8 6.1-1.7 1.2-.9 3.6-2.6 5.4-3.7 3.2-2 8.3-11.2 8.3-14.9 0-1-1.1-4.1-2.4-7-2.4-5.1-6.2-9.1-26.5-27.7-12.7-11.7-16.1-15.3-16.1-17.1 0-.9 2.6-4.5 5.8-8 9.3-10.2 12.8-14.5 14.5-17.8 2-3.9 15.2-17.2 18.1-18.4 1.3-.4 11.5-.7 22.9-.6 21.4.3 22.5.5 24.8 4.8.7 1.2 1 26.5 1 71.6-.1 63.7 0 70.2 1.6 75.4 1.4 4.4 2.6 6.2 5.3 8 1.9 1.3 3.6 3.4 3.8 4.6.3 2.1.8 2.2 8.7 2.2 7.8 0 8.3-.1 8.9-2.3.3-1.3 2.3-3.7 4.5-5.5 3-2.4 4.1-4.2 5.1-8.3 1-4.1 1.2-34 .7-139.6l-.6-134.4 2.8-3.2c1.6-1.8 3.6-4.8 4.5-6.7.9-1.9 3.6-6.2 6.1-9.5 2.4-3.3 5.8-8.5 7.5-11.5 3.9-7 7.3-11.9 10-14.7 1.3-1.2 3.3-4.4 4.6-7 3-5.9 6.4-11 9.6-14.3 1.4-1.4 2.8-3.6 3.3-5 .4-1.4 2-4.1 3.6-6.2 1.5-2 4-6.2 5.5-9.5l2.6-5.8v-65c0-35.8.3-69.5.7-75 .6-9.9.6-10.1-2.6-16.6-1.7-3.6-4.8-8-6.8-9.7-3.2-2.9-4.2-3.2-9.8-3.1-3.4.1-7.2.4-8.4.7z"/><path d="M292.7 157.6c-2.5 2-5 4.6-5.4 5.8-.4 1.1-.7 17.6-.6 36.5l.1 34.4 5.4 4.8c6.5 5.8 11.5 7.2 13.8 3.9 2.7-4.1 16.1-16.7 19.6-18.6 2.1-1.2 4.1-3.4 5.4-6.2 1.8-3.7 1.9-5.4 1.4-12.3-.5-5.1-1.5-9.6-2.8-12.2l-2.1-4.2-7.8-.6c-4.3-.4-8.4-1.2-9-1.8-.8-.8-1.2-5.1-1.2-11.9 0-12.3-.9-14.5-7.5-18.7-2.2-1.4-4.1-2.5-4.3-2.5-.2 0-2.5 1.6-5 3.6zM391.8 168.6c-1.5.8-4.1 3.4-5.8 5.9-3 4.4-3.9 4.9-9 4.6-2.9-.2-11.4 3.1-12.5 4.8-.3.6-.7 7.7-.8 15.7-.2 17.1-.4 16.8 10 17.7 5.2.4 8.7 1.5 15 4.7 4.6 2.2 8.9 4.9 9.6 6 .7 1 2.6 2.4 4.2 3.1 1.7.7 3.9 2.4 5.1 3.8 4.3 5.1 5.5-.5 2.4-11.3-.8-2.5-1-11.1-.7-25 .4-20.5.4-21.2-1.9-25.7-1.3-2.6-3-4.9-3.9-5.3-2.9-1.1-8.9-.6-11.7 1zM351.4 238c-7 1.3-18.9 7.6-24.6 13.1-2.7 2.5-4.8 4.9-4.8 5.3 0 .4-1.4 2.7-3.1 5.1-4 5.6-6 18.4-4.6 30.1 1.2 10.5 3.9 16.1 12.2 24.8 10.5 11.1 22.7 14.9 40.8 13 10.5-1.2 14.6-3.1 24.3-11.7 10.8-9.4 16.7-26.1 14.3-40.6-3.1-19.7-23.3-38.5-42.5-39.6-3.8-.2-9.2 0-12 .5zM484.6 340.2c-.9 1.2-1.6 2.8-1.6 3.5 0 .7-1.6 3-3.5 5s-3.5 4.2-3.5 4.9c0 .6-1.3 2.8-2.9 4.8-1.7 2.1-3.5 5.2-4 6.9-.6 1.8-2.4 4.5-4.1 6-1.6 1.6-3 3.4-3 4 0 .7-1.6 3.2-3.5 5.6-1.9 2.4-3.5 4.9-3.5 5.5 0 .7-1.6 2.7-3.5 4.6-3.7 3.6-4.1 4.6-2.6 6.9.7 1 2.5 1.4 6.1 1.2 8.1-.3 9 1 9 13 0 6.8-.4 9.9-1.2 10.3-1 .5-1 .7 0 1.2s1.3 7.5 1.1 35l-.1 34.3 3.6 5.6c3.7 5.4 3.8 5.5 8.7 5.5 4.2 0 5.4-.5 7.6-2.8 5.5-5.9 5.2-.9 5.4-83.9 0-42.4-.2-77.6-.6-78.2-1-1.7-2.2-1.3-3.9 1.1zM442.3 401.1c-.5.8-1.3 3.2-1.6 5.3-.4 2.2-1.7 5.1-3.1 6.5l-2.5 2.6-.2 43.8c-.1 24 .1 44 .4 44.3.3.4 2.7.3 5.2-.1 7.6-1.1 7.5-.2 7.5-52.9v-45.5l-2.3-2.7c-1.8-2.1-2.5-2.4-3.4-1.3zM281.7 413.6c-1.2 1.2-.7 4.8.8 6.8 2.3 3.1 2.2 48.3-.1 54.7-2.8 7.6-.6 9.6 6.6 6.1 2-1 3.7-2.7 4.1-4.2.4-1.4.7-14.8.8-29.8l.1-27.4-2.9-2.9c-1.6-1.6-3.6-2.9-4.4-2.9-.9 0-2.2-.2-2.9-.5-.8-.3-1.7-.2-2.1.1z"/></svg>