<svg id="icon2" version="1" xmlns="http://www.w3.org/2000/svg" viewBox="0 0 700 700"><path d="M337.9 82.4c-4.7 1.3-10.8 3.5-13.5 4.9-2.7 1.5-6.9 3.6-9.4 4.7-7.4 3.3-11.3 6.6-24.5 20-1.3 1.4-3 4.1-3.6 6-.7 1.9-2.3 4.8-3.5 6.3-1.3 1.5-2.6 4.4-2.9 6.5-.4 2-1.3 6-2.1 8.8-1.9 7.1-2 25.7 0 33 .8 3.3 1.8 7.6 2.1 9.6.3 2.1 1.6 5 2.9 6.5 1.3 1.6 3 4.4 3.9 6.4.8 1.9 2.5 4.7 3.8 6.1 1.3 1.4 3.3 3.7 4.5 4.9 7.8 8.8 20.5 16.3 31.7 18.9 4.5 1 10.7 2.6 13.7 3.4 7.5 2.2 11.9 2 19.2-.8 3.5-1.3 8.8-2.6 12-3 5.4-.7 7.8-1.6 16.2-6.5 5.4-3.1 15.5-12 17.1-15.1.7-1.4 2.7-4 4.3-5.8 1.7-1.9 3.3-4.6 3.7-6 .4-1.5 1.9-4.6 3.4-6.9 2.2-3.3 2.9-5.8 3.5-12 .3-4.3 1.1-9.4 1.6-11.3 1-3.3.5-8.5-2.6-27.7-.3-1.8-1.5-4.5-2.8-6-1.2-1.5-2.8-4.4-3.6-6.3-4.3-11.1-20.4-26.2-33-30.8-3.6-1.3-7.2-3-8-3.7-1.9-1.7-16.1-5.7-21.5-6.1-2.2-.2-7.9.7-12.6 2zM218.3 102.1c-1.7.5-6.8 1.6-11.3 2.3-5.1.9-9.6 2.4-11.9 3.9-2 1.3-5.2 3-7.1 3.7-1.9.8-4.8 2.5-6.3 3.9-7.7 7-13.7 13.9-14.2 16.3-.4 1.5-1.3 3.2-2.1 3.9-2.7 2.2-4.4 6.7-4.4 11.3 0 3.9.4 4.8 3.1 6.7 1.7 1.2 4.2 3.2 5.6 4.5 1.4 1.3 2.9 2.4 3.2 2.4.4 0 2.7 2.5 5.1 5.6 2.5 3 5.9 7.2 7.7 9.3 1.7 2 3.5 5 3.9 6.6.4 1.7 1.7 4.3 2.9 6 2.8 3.7 3.3 5.6 3.6 12.5.3 8 1 9 7 9 2.7 0 6.5-.6 8.3-1.4 5.8-2.4 17.6-3.9 25.8-3.2 8.5.7 24.8 5.5 29 8.6 1.5 1.1 3.2 2 3.7 2 .6 0 1.9-2.1 3-4.6 2.1-4.6 2.1-4.6.1-8.8-1.1-2.2-2.9-5.2-4-6.6-1.1-1.4-2.8-5.2-3.6-8.5-.9-3.3-2.5-7.7-3.7-10-2-3.7-2.2-5.4-2.2-22.6v-18.5l3.3-6.2c1.7-3.4 3.2-7.1 3.2-8.2 0-4-2.5-7.2-7.4-9.7-2.8-1.4-6.1-3.4-7.6-4.3-1.9-1.4-26.9-7.3-29.1-6.9-.2 0-1.8.5-3.6 1zM472.5 102.1c-1.6.5-5.9 1.4-9.5 2-11.8 1.7-30 13.3-30 19.1 0 4.1 3.1 20.1 4.6 23.6 1.8 4.4 1.8 9.6-.1 15.8-.8 2.7-2.2 9.2-3.1 14.4-1 6.4-2.2 10.2-3.5 11.6-2.1 2.3-5.9 12.1-5.9 15.4 0 2.9 1.6 5.7 4.1 7 1.6.9 4.4.5 13.2-2.1 9.9-2.9 12.7-3.3 23.7-3.3 10.6-.1 13.5.3 19.2 2.2 10.1 3.5 11.1 3.1 12.1-4.8.5-3.7 1.8-8.2 3.1-10.5 1.3-2.2 2.9-5.9 3.5-8.1.6-2.3 2.5-5.8 4.1-7.9 1.7-2.1 3-4.2 3-4.6 0-1.1 16.2-17.2 21.5-21.4 6.1-4.9 6.5-5.5 6.5-9.5 0-3-.9-5-3.7-8.6-6.1-7.7-19.4-20.2-22.2-20.9-1.4-.3-4.3-1.8-6.4-3.3-5.8-3.9-28.6-8-34.2-6.1zM568.5 154.1c-3.3.4-8.2 1.9-11 3.3-2.7 1.3-6.8 3.2-9 4.1-7.1 3-21 15.3-23.1 20.5-.8 1.9-2.7 4.7-4.1 6.2-1.8 1.8-2.9 4.7-3.9 9.9-.8 4.3-2.4 8.7-3.9 10.9-1.4 2-2.5 4.1-2.5 4.7 0 1.1 4.3 5.6 15.6 16.5 8.8 8.4 18.6 22.6 19.9 28.8.4 1.9 1.8 5.5 3.1 8s2.4 5.8 2.4 7.4c0 3.6 5.6 9.1 10.8 10.6 6.8 1.9 17.7 3.1 22.7 2.4 9.6-1.2 28.1-8.1 34.3-12.8 6.5-4.9 15-14.4 17.7-19.6 1-1.9 2.6-4.6 3.6-6 2.8-3.8 5.9-19.1 5.9-28.5 0-11.1-3.3-25.5-7.4-31.8-3.7-5.8-16.4-20.7-17.6-20.7-.4 0-2.7-1.6-5-3.5s-4.7-3.5-5.4-3.5c-.6 0-3.9-1.3-7.3-3-9.2-4.5-21.8-5.9-35.8-3.9zM111.5 155c-3.3.5-8.1 1.8-10.7 2.9-2.6 1.1-6.3 2.3-8.3 2.7-5.1.9-17 9-23.7 16.2-3.2 3.3-5.8 6.4-5.8 6.9 0 .4-1.5 2.5-3.4 4.6-2.2 2.5-3.5 5.2-3.9 8-.3 2.3-1.8 6.9-3.4 10.2-2.5 5.4-2.8 7.1-2.7 16.5 0 8.8.3 11.2 2.1 14.6 1.2 2.2 2.9 6.9 3.8 10.4 1 3.9 2.8 7.7 4.6 9.7 1.6 1.9 2.9 3.8 2.9 4.4 0 2.1 15.5 16.1 20.5 18.5 2.8 1.4 6.6 3.4 8.5 4.4 1.9 1.1 5.3 2 7.5 2s6.9.5 10.3 1c7.2 1 28.2-.9 32-2.9 3-1.6 4.2-4.3 5.3-11.9.6-4 1.9-8.1 3.3-10.2 1.2-1.9 2.8-5.1 3.5-7.1.6-2 2.5-5.4 4.1-7.5 1.6-2.2 3-4.4 3-4.9.1-1.3 10-11.6 16.8-17.4 7-6.1 7.1-6.9 3.6-25.8-.2-1.2-1.5-3.4-2.8-5-1.3-1.5-2.9-4.6-3.5-6.7-.6-2.2-2.2-5.1-3.6-6.5-1.4-1.4-4.9-5-7.7-8-2.9-3-6.9-6-8.8-6.9-1.9-.8-4.7-2.5-6.3-3.8-1.5-1.3-4.4-2.6-6.5-2.9-2-.3-6.4-1.7-9.7-3-7.5-2.9-13.2-3.6-21-2.5zM216.5 224.5c-16.3 3.5-34 16.3-41.4 30-1.1 2.2-3 5.1-4.1 6.5-3.2 4.1-6.3 20.8-5.7 30.9.9 13.2 3 22.3 6.6 27.7 1.7 2.6 3.1 5.2 3.1 5.7s1.5 2.6 3.3 4.7c1.7 2 4.5 5.3 6 7.4 1.5 2 4.5 4.5 6.5 5.5s4.5 2.8 5.6 4c1 1.1 3.5 2.3 5.5 2.7 2 .4 6.8 2 10.6 3.7 6.6 2.9 7.8 3.1 19 3.1 10.8 0 12.6-.3 18.2-2.7 3.3-1.4 7.9-2.9 10.2-3.3 2.2-.4 4.5-1.2 5-1.8.9-1.1 3.6-8.1 6.7-17.6 2.6-7.5 8.3-18.2 12.1-22.2 1.2-1.3 3.7-3.9 5.5-5.8 1.9-1.9 5.3-5.6 7.6-8.2l4.3-4.6-1.1-6.3c-.6-3.5-2-8-3.1-10-1-2-2.1-5.7-2.5-8.1-1.1-7.1-14-25.5-19.6-27.9-1.5-.6-3.3-1.7-3.9-2.5-1.2-1.4-17.7-9.7-21.8-10.9-4.3-1.3-26.4-1.3-32.6 0zM451.9 224c-5.2.9-18.1 6.8-25.1 11.6-5.3 3.6-12.4 10.7-14.3 14.5-.8 1.4-2 3.1-2.9 3.8-.8.7-2.7 4.8-4.1 9.2-1.5 4.3-3 8.1-3.5 8.4-.5.3-1.4 3-2.1 6-1.6 7.4-.4 9.9 9.3 18.5 9.3 8.3 13.6 13.4 17.7 21.1 1.6 3 3.6 6.1 4.5 6.8.8.7 1.8 2.9 2.2 5 1.2 7 4.7 17.6 6.3 19.3 3.4 3.5 11.2 6.8 18.6 7.9 9.2 1.4 22.4 0 28.3-3 2.1-1.1 5.5-2.3 7.6-2.6 5.3-1 12.8-6.4 22.2-16.1 6-6.1 8.3-9.2 8.8-11.8.4-2 1.8-4.9 3.2-6.6 2.3-2.6 2.7-4.5 3.6-14.6.6-6.3.7-16.2.3-21.9-.6-9.3-1-11-3.6-14.7-1.6-2.4-3.2-5.8-3.5-7.6-.5-2.6-3.4-6.1-11.3-14-9.6-9.6-11.5-11.1-19.2-14.4-4.7-2-11.4-4.2-14.9-4.7-7.4-1.2-21.2-1.2-28.1-.1zM301.7 238.7c-1.6 1.5-.5 5.1 2.2 7.1 2.1 1.5 3.2 3.6 4.1 7.4.7 2.9 2.3 7.1 3.6 9.4 1.5 2.6 2.4 5.7 2.4 8.5 0 2.4.6 5.5 1.3 6.9 1.7 3.3 5.1 3.1 15.2-1 7.6-3.1 8.7-3.2 21.5-3.3 13.1-.1 13.7 0 20.7 3.1 11 4.9 11.7 4.5 12.6-6.6.4-5.1 1.3-8.6 3-11.5 1.3-2.3 3.2-6.4 4.1-9 1.2-3.2 2.6-5.1 4.2-5.7 2.6-1 3.1-2.9 1.2-4.8-.9-.9-13-1.2-48.3-1.2-26 0-47.5.3-47.8.7zM343 294c-3.6.3-8.4 1.6-10.6 2.8-2.3 1.2-6.4 3-9.2 4-6.7 2.6-9.7 4.9-20.3 15.7-6.4 6.5-8.9 9.7-8.9 11.5 0 2.5-1 4.6-4.4 9.4-2.7 3.8-3.9 18.1-2.7 32.8.8 10.2 1.3 12.4 3.4 15.6 1.4 2 2.9 5 3.3 6.7.7 2.9 4.6 8 12.3 16 6.8 7 11.5 10.2 17.3 11.9 3.2.9 7.3 2.5 9.2 3.7 8.1 4.8 31.9 4.8 42 0 2.2-1.1 6.6-3.1 9.6-4.6 3-1.4 7.1-3.5 9.1-4.8 3.7-2.3 12.9-11.3 12.9-12.7 0-.4 1.3-2.4 3-4.5 1.6-2.1 3.5-5.6 4.1-7.9.6-2.2 2.2-5.9 3.5-8.2 5-8.5 5.2-32.2.3-40-1.1-1.9-2.9-6.2-3.9-9.4-1-3.3-3.1-7.6-4.7-9.6-5.2-6.5-12.6-14.4-13.5-14.4-.5 0-3.1-1.6-5.9-3.5-2.8-1.9-5.7-3.5-6.4-3.5-.7 0-3.7-1.3-6.8-3-3.8-2-8-3.2-13.8-4-8.9-1.1-9-1.1-18.9 0zM553.6 295.9c-.4.5-.9 4.5-1.3 8.8-.4 5.8-1.3 9.2-3.4 13.2-1.6 3-2.9 6.4-2.9 7.5 0 2.6-8.1 15.2-11.5 18.1-2.4 1.9-3 4.2-2.7 9.6.2 2.3.8 2.7 5.6 3.8 3 .7 6 1.9 6.7 2.8.7.8 3.7 2.6 6.6 3.8 4.8 2.2 23.3 16.9 23.3 18.6 0 .4 1.7 2.8 3.8 5.3 5 6 7.6 10.1 10.6 16.2 1.3 2.8 2.9 5.4 3.5 5.8.6.4 1.8 3.3 2.7 6.4.8 3.1 2.6 8.2 3.9 11.2 2.1 5 2.4 7.2 2.7 23.5.4 19.5 1.5 24.3 5.3 23.7 1.1-.1 6.5-.9 12-1.7 5.5-.8 15.4-2.1 22-2.9 6.6-.8 14.5-2.4 17.5-3.5 3-1.2 8.7-2.9 12.5-3.7 3.9-.9 9-2.7 11.5-3.9 2.5-1.2 5.6-2.6 7-3 1.4-.4 4.4-2.1 6.8-3.8l4.2-3v-38.8c0-37.5-.1-38.8-1.9-39.4-2.2-.7-4.7-6.7-5.6-13.7-.3-2.6-1.5-5.8-2.7-7.3-1.1-1.4-2.7-4.7-3.4-7.3-.8-2.6-2.6-5.8-4-7.2-1.3-1.4-5.4-5.9-8.9-10.2-3.6-4.2-8.1-8.6-10-9.8-1.9-1.2-4-3-4.5-4s-2.7-2.4-4.7-3c-2.1-.7-5.4-2.3-7.5-3.7-2-1.3-6.9-3.3-11-4.4-4-1-9.8-2.6-12.8-3.4-4.3-1.2-12-1.5-37.2-1.5-18 0-31.9.4-32.2.9zM79 298.1c-1.4.6-6.2 1.7-10.8 2.4-4.6.8-10 2.4-12 3.6-2 1.2-5.4 2.7-7.5 3.5-5.5 2-15.4 9.4-22.2 16.6C16.8 334.6 14 338 14 339.4c0 .7-1.4 3.3-3 5.8-1.7 2.6-3.5 7-4.1 10.4-1.3 7.1-2.3 9.1-4.9 9.9-2 .6-2 1.5-2 45V455l2.7.6c1.6.4 4.6 1.7 6.8 3s6.3 2.8 9 3.4c2.8.6 7.5 2.1 10.5 3.4 3 1.4 9.3 2.9 14 3.5 4.7.6 10.8 1.8 13.5 2.5 13.7 3.8 36.2 5.9 39 3.6 1.2-1 1.5-3.9 1.5-14.9.1-21.3 1.3-32.1 4.3-37.2 1.4-2.4 3.1-6.4 3.7-8.9.7-2.5 2-5.4 3-6.5 1-1.1 2.8-4 3.9-6.5 5.3-11.4 26.5-32.3 37.8-37.1 2.6-1.1 5.6-2.7 6.5-3.6.9-.8 3.8-2 6.4-2.7 7-1.8 7.8-3.8 3.1-8.2-2-2-4.5-5-5.4-6.7-.8-1.8-2.6-4.5-3.9-6-1.3-1.6-2.4-3.4-2.4-4 0-.7-1.6-4.3-3.5-8.1-3-6-3.5-8-3.5-14.1 0-11.2 1.7-10.6-29-11-14.6-.2-28.3-.8-30.5-1.4-4.8-1.3-5.3-1.3-8.5 0z"/><path d="M191.7 365.2c-13 1.6-32 9.4-39.7 16.2-1.4 1.2-4.1 3.4-6 4.8-1.9 1.4-5.5 5.1-8 8.3-2.5 3.1-6 7.3-7.8 9.4-1.8 2.2-3.9 6-4.7 8.6-.7 2.6-2.3 5.7-3.5 7-1.5 1.6-2.3 4.4-3 10.6-.5 4.6-1.4 9.9-1.9 11.7-1.4 4.7-1.6 75-.3 78.4 1.3 3.2 3.5 4.5 9.3 5.4 2.4.4 6.2 1.6 8.3 2.7 2.2 1 9.1 2.8 15.3 3.8 6.3 1 11.9 2.1 12.4 2.5 2.9 1.7 12.9 3.6 27.4 5 8.8.9 17.8 1.8 20.1 2.1 3.6.4 4.4.1 6.4-2.4 2.2-2.7 2.2-3.3 1.6-15.9-.4-9.8-.2-14.3.8-18 4.8-16.3 7.6-24.6 9.3-27.1 1.1-1.5 2.4-3.9 2.8-5.3.4-1.4 1.9-4.1 3.4-6 1.6-1.9 3.5-4.9 4.3-6.5 1.6-3 14.9-16.7 21-21.6 1.9-1.5 5.1-3.7 7.3-5 2.2-1.3 5.2-3.3 6.7-4.5 1.5-1.2 4.5-2.5 6.7-2.9 4.4-.7 6.6-2.7 7.6-6.7.6-2.3.1-3.4-3.4-6.8-2.3-2.2-4.1-4.6-4.1-5.3 0-.7-1.3-3.1-2.9-5.3-1.5-2.1-3.4-5.7-4.1-7.9-.6-2.2-2.2-6.7-3.5-10-1.2-3.3-2.6-8.7-2.9-12-.4-3.3-1.1-6.4-1.6-6.9-1.1-1.1-65-1.4-73.3-.4zM443.8 365c-1.7.4-2.7 1.8-3.7 5-.7 2.5-2.4 7.6-3.7 11.5-1.2 3.8-2.5 8.6-2.8 10.6-.4 2-1.5 4.4-2.6 5.4s-2.7 3.8-3.6 6.4c-1 2.5-3 6-4.6 7.7-3.1 3.4-4.9 8.2-4.1 11.3.4 1.4 2.2 2.5 6.2 3.6 3.1.9 6.6 2.6 7.8 3.7 1.2 1.1 4.5 3.1 7.3 4.4 6.5 3 25.8 22.2 29.4 29.2 1.3 2.6 3.1 5.4 4 6.1.8.7 2 2.9 2.7 4.9.6 2 2.2 5.3 3.5 7.2 1.3 2 2.8 6 3.4 9 .6 3 1.9 8.1 3 11.3 1.5 4.2 2.2 9.7 2.7 20.9.6 14.2.8 15.4 3 17.6 2.1 2.1 2.9 2.3 8.1 1.7 3.1-.3 8-1.1 10.7-1.6 2.8-.5 9.8-1.3 15.6-1.9 5.9-.5 13.1-1.8 16-2.9 3-1.1 8.4-2.7 12.2-3.5 3.7-.9 8.9-2.7 11.5-4 2.6-1.3 6.6-2.7 8.9-3.1 2.3-.3 4.8-1.4 5.5-2.2 1-1.3 1.3-11.1 1.2-47.3v-45.8l-3.6-7.3c-2-4.1-4.1-9.1-4.7-11.1-.7-2-1.9-4.2-2.7-4.9-.9-.7-2.4-3-3.5-5.1-1.1-2.1-2.3-3.8-2.8-3.8-.4 0-2.2-2-4-4.5-3.6-5-11.7-11.6-19-15.5-2.5-1.4-5.9-3.3-7.3-4.3-1.5-1-7.8-3.5-14-5.4l-11.3-3.5-31.2-.2c-17.1 0-32.2.1-33.5.4z"/><path d="M312.5 436.5c-2.7.8-8.8 2.4-13.5 3.5-4.7 1.2-10.1 3.1-12 4.4-1.9 1.2-5 2.8-6.8 3.4-1.9.6-4.9 2.4-6.9 3.9-5.4 4.3-21.3 20.6-21.3 21.9 0 .6-1.3 2.9-3 5.2-1.6 2.2-3.2 5.4-3.6 6.9-.4 1.5-2.1 5.5-3.8 8.8l-3.1 6-.5 44c-.3 24.2-.3 45.3 0 46.9.5 2.6 1.2 3.1 6.5 4.6 3.3.9 7.4 2.4 9.2 3.3 1.8.9 6.7 2.2 11 2.8 4.3.6 11.6 2.2 16.3 3.5 4.7 1.4 14.4 3.1 21.5 3.9 7.2.7 17.7 2.2 23.5 3.1 14.8 2.5 53 2.5 68.5 0 6.1-.9 15.7-2.3 21.5-3.1 5.8-.7 13-2.3 16-3.4 3-1.2 8.4-2.8 12-3.6 3.6-.8 9-2.6 12-4 3-1.3 7.2-3.1 9.3-3.9l3.8-1.5-.3-42.8-.3-42.8-2.7-7c-1.5-3.9-3.2-8.9-3.8-11.2-.6-2.3-2.2-5.5-3.6-7.2-1.3-1.6-3-4.5-3.7-6.4-1.5-4.2-14-18.3-18.2-20.4-1.6-.9-4.6-2.9-6.5-4.4-1.9-1.6-3.9-2.9-4.4-2.9-.5 0-3-1.3-5.5-2.9-2.5-1.6-6.8-3.5-9.6-4.1-2.7-.7-7.9-2.1-11.5-3.3-6.8-2.2-18.2-2.7-38.5-1.8-4.9.2-16.6.1-26-.2-13.6-.6-18-.4-22 .8z"/></svg>