<svg id="icon1" version="1" xmlns="http://www.w3.org/2000/svg" viewBox="0 0 700 700"><path d="M181 38.1c-2.5 1.2-7.6 2.9-11.3 3.9-3.8 1-7.6 2.5-8.5 3.3-1 .8-3.6 2.4-6 3.6-9.5 4.8-17.9 12.9-22.8 21.9-1.6 3-3.7 6.8-4.6 8.5-1 1.8-1.8 4.2-1.8 5.4 0 1.2-.7 5.2-1.6 9-1.1 4.6-1.4 8.9-1 13.3.9 10.4 3.5 21.3 5.6 24 1.1 1.4 2.9 4.1 3.9 6.1 1.1 2 6.2 7.5 11.2 12.3 15.8 14.8 32.1 20.8 50.6 18.6 9.2-1.2 10.7-1.6 14.3-4 1.4-1 4.3-2.3 6.5-3 2.2-.7 5.1-2.3 6.5-3.5 1.4-1.2 3.7-2.9 5.1-3.6 2.3-1.3 6.4-5.6 14-15.1 1.5-1.8 3-4.4 3.4-5.8.4-1.4 2.3-5.4 4.2-9l3.5-6.5-.4-15c-.4-14.5-.5-15.2-3.5-21-1.7-3.3-3.8-7.6-4.6-9.5-2-4.8-17.8-21.4-21.9-23-1.8-.7-4.9-2.3-6.8-3.6-1.9-1.3-6.4-2.9-10-3.7-3.6-.8-7.9-2.1-9.5-2.9-5.4-2.8-9.6-3-14.5-.7zM343 36.9c-1.4.4-4 1.6-5.8 2.5-1.7.9-5.6 2.1-8.5 2.6-2.8.6-6.4 1.9-8 3.1-1.5 1.1-4.6 2.8-7 3.8-4 1.7-15.5 12.4-22.3 20.8-1.9 2.2-3.6 5.9-4.2 8.9-.6 2.8-2 7.3-3.1 10-2.6 6.7-3.4 14.6-2.3 21.9 1.4 8.5 5.9 20.4 9.2 24.2 1.6 1.7 3.2 4.2 3.6 5.5.9 3 8.9 11.9 12.3 13.7 1.4.8 4.1 2.7 5.9 4.2 1.8 1.6 3.7 2.9 4.3 2.9.6 0 4.5 1.4 8.6 3 14 5.6 29.6 5.8 40.8.5 2.8-1.3 6.5-2.8 8.4-3.4 5.3-1.7 20.6-15.3 23.4-20.8 1-1.8 2.8-4.4 4.2-5.9 1.4-1.5 3-4.5 3.5-6.8.6-2.3 2-6 3.3-8.4 1.9-3.6 2.2-5.8 2.2-15 0-9-.3-11.3-2.1-14.7-1.2-2.2-2.7-6.6-3.3-9.7-.8-3.5-2.5-7.4-4.4-10-5.8-7.6-18.1-19.1-22.7-21.1-2.5-1.1-5.4-2.8-6.6-3.8-1.1-1.1-4.6-2.4-7.7-2.9-3-.5-7.2-1.7-9.4-2.8-4.8-2.5-9.1-3.3-12.3-2.3zM501 37.5c-9.9 3.8-11.7 4.4-13.6 4.5-3 0-19.2 8.4-22.7 11.7-8.6 8.1-16.4 18.1-17.1 21.9-.4 2.1-1.9 5.7-3.4 7.8-2.6 3.8-2.7 4.6-3 19l-.4 15.1 3.5 6.5c1.9 3.6 3.8 8 4.2 9.9 1 4.7 22 25.6 26.7 26.6 1.8.4 6 2 9.3 3.5 16.6 7.9 41.8 4.5 56.3-7.7 5.9-4.9 19.2-18.3 19.2-19.3 0-.5 1.3-2.4 2.9-4.3 2.1-2.4 3.2-5 4-9.7.7-3.6 1.9-9.3 2.7-12.6 1.5-5.8 1.5-6.6-.4-15-1.1-4.9-2.3-10.5-2.6-12.5-.4-2.1-1.5-4.8-2.5-6-1-1.3-2.9-4.4-4.1-6.9-1.3-2.5-3.8-6.3-5.7-8.5-3.7-4.3-14.1-12.5-15.9-12.5-.6 0-3-1.3-5.5-2.9-2.4-1.6-6.9-3.4-9.9-4.1-3-.7-7.7-2.4-10.5-3.6-5.8-2.7-6.7-2.8-11.5-.9z"/><path d="M669.5 111c-2.2.5-5 1.2-6.1 1.7-3 1.1-11.1 10.4-11.9 13.6-.4 1.4-1.8 3.8-3.2 5.3-1.4 1.5-3.3 4.6-4.3 7-1 2.3-2.3 4.5-2.9 4.9-.6.3-2.2 2.7-3.6 5.3-1.3 2.6-3.5 5.8-5 7.1-1.4 1.3-2.5 2.9-2.5 3.6 0 .7-.7 1.9-1.7 2.6-.9.8-3.1 3.6-4.9 6.4-2.6 4.1-12.7 15.7-16.1 18.7-1.7 1.4-10.6 9.4-13 11.6-1.4 1.3-3.6 2.7-4.9 3.2-7.3 2.8-25.7 1.8-29.4-1.5-1-.9-4.2-2.5-7.1-3.6-3-1.1-7-3.1-8.9-4.4-1.9-1.3-5.5-2.9-8-3.5-2.4-.7-5.7-2.3-7.3-3.6-2.8-2.4-8.5-4.4-12.4-4.4-1.2 0-3.5 1.1-5.1 2.5-4.8 4.1-8.4 3.3-15.9-3.6-6.4-5.8-14.6-6.4-19.3-1.4-4.1 4.3-12 4.5-12 .2 0-1.1 1.2-3.3 2.6-4.9l2.7-2.7-2.8-3.7c-1.5-2-4.1-4.4-5.7-5.3-4.7-2.6-19.1-17.4-21-21.7-.9-1.9-1.7-2.4-3.2-1.9-1.2.3-4.4 1.1-7.3 1.7-6 1.4-9.3.2-11.2-3.8-1.3-2.8-3.1-3.1-3.7-.6-.3.9-1.8 2.5-3.4 3.4-1.6.9-3.6 3.1-4.6 5-3 5.8-11.3 14.6-16 16.9-4.8 2.3-6.7 5.4-6.2 9.8.3 2.1 1.1 2.7 5.2 3.7 2.8.7 6.1 2.2 7.5 3.4 1.4 1.1 4.6 3 7.1 4.1 2.5 1.1 5.3 2.8 6.3 3.7 2.3 2.1 9.6 6.4 16.2 9.6 2.8 1.3 5.7 3.2 6.5 4.1 1.3 1.5 1.6 12.3 2 70.9l.5 69.1 2.5 5 2.5 5 .5 146.6.5 146.6 5.9 6.7c3.9 4.4 7.7 7.6 11 9.2 2.8 1.4 6.4 3.2 8.1 4.1 2.7 1.5 3.1 1.5 6-.2 1.6-1 4.8-2.7 7-3.8 4.6-2.2 14-10.9 16.1-14.9 1.1-2.2 1.4-22.5 1.4-128.1.1-110.2.3-125.7 1.6-127.5 1.2-1.8 1.9-2 3.5-1.2 1.9 1.1 1.9 3.3 2 118.3 0 64.5.4 121.1.8 125.8.6 6.9 1.3 9.5 3.7 13.4 4.1 6.6 9.2 12.3 11.7 13.1 1.2.3 5 2 8.4 3.6l6.2 3 3.5-2.7c1.9-1.4 5.1-3.1 7-3.6 2-.6 5.1-2.3 6.9-3.9 1.7-1.6 4-3.5 4.9-4.2 1.2-.9 2.4-4.7 3.8-11.3 1.9-9.6 1.9-15.4 2.3-148 .4-123.3.6-138.4 2-142.1 2.1-5.4 3.7-34 3.2-58.9-.3-19.8.4-27.1 2.6-28.6.8-.5 3.2-1.3 5.4-1.9 2.2-.5 6-1.7 8.5-2.6 2.5-.9 7.2-2.5 10.5-3.7 3.2-1.1 7.9-3.3 10.4-4.9 2.5-1.5 5.1-2.8 5.8-2.8.7 0 2.7-1.3 4.5-2.8 1.8-1.5 5.1-4 7.3-5.5 9-6.2 11.3-8.1 19-15.8 11.2-11.1 13.7-14 22-25.4 4-5.5 8.5-11.3 10-12.9 1.5-1.6 3.5-4.8 4.5-7 .9-2.3 2.7-4.9 3.8-6 1.2-1 2.7-3.5 3.3-5.5.7-2 2.2-5 3.4-6.6 1.2-1.7 3-4.9 4-7.3 1.2-2.8 2.6-4.4 4.2-4.8 2.2-.6 2.3-1 2.3-10.5 0-9-.2-9.9-1.9-9.9-1 0-3.4-2.2-5.7-5.3-5.7-7.6-13.6-10.6-22.9-8.7zM17.5 117.4c-6.4 2-8.4 3.4-10.5 7.6-1.3 2.5-3 4.2-4.5 4.6-2.4.6-2.5.9-2.5 9.8 0 9 0 9.1 2.9 10.8 2.1 1.1 3.3 2.9 4.1 5.7.6 2.2 2.1 5.3 3.4 6.8 1.3 1.5 2.8 4.4 3.5 6.4.6 2 2.4 4.8 4 6.3 1.6 1.6 3.2 4 3.6 5.4.3 1.4 2 4.2 3.6 6.3 1.6 2 2.9 4.1 2.9 4.6 0 .6 1.7 2.8 3.8 5 2 2.3 7.1 8.3 11.2 13.4 11.2 13.8 29.1 30.5 38.3 35.7 2.3 1.3 4.9 2.9 5.7 3.7.8.7 3.1 1.8 5.1 2.4 2 .6 5.1 2.2 6.9 3.6 1.8 1.3 5.8 2.9 8.9 3.6 12.8 2.6 14.6 4.6 14.7 16.4 0 4.4.6 13.8 1.3 21 .6 7.3.9 17.8.5 24-.6 11.5.9 23.5 4.2 32 1.2 3.3 1.4 7.1.9 20.5-.3 9.1-.8 71.1-1.1 137.7-.4 119.3-.4 121.4 1.5 125.2 1.1 2.1 2.5 5.9 3.2 8.4.7 2.8 2 5.2 3.4 6.1 1.3.9 3.5 2.7 4.8 4 1.4 1.4 4.4 3 6.8 3.6 2.4.6 5.7 2 7.3 3.2 1.7 1.3 3.1 1.6 3.5 1 .3-.6 3.6-2 7.2-3.2 8.9-2.8 13.9-7.5 18.4-16.9l3.5-7.4V511.4c-.1-67.9.2-123.9.5-124.4 1.1-1.7 5.6-1.1 6.1.7.3 1 .6 58.3.7 127.3.2 141.6-.7 127.1 8.6 136.7 3.5 3.5 6.8 5.8 10.8 7.3 5.3 2 6.4 2.1 11.8 1.1 9.8-1.9 14.3-4.8 20.2-12.5l5.3-6.9V496.6c.1-79.3.5-145.9 1-148.1.4-2.2 1.7-6 2.6-8.5 1.7-4.1 1.9-9.9 2.4-69 .4-47.9.2-65.1-.6-67-1.8-3.8-5.4-6.7-9.9-7.9-2.2-.6-6-2.5-8.4-4.1-2.4-1.7-4.9-3-5.5-3-.6 0-3.3-1.6-6-3.5s-5.5-3.5-6.1-3.5c-.6 0-2.2-1.1-3.5-2.5-2.9-3-8.3-4.9-11.8-4-1.5.3-4.3 1.9-6.2 3.4-4.5 3.6-11.4 7.1-13.8 7.1-1 0-2.9-1.1-4.2-2.5-1.8-1.9-3.4-2.5-6.6-2.5-4.6 0-10.4 2.1-12.3 4.4-.7.8-4.3 2.7-8.1 4.1-3.8 1.4-7.4 3.2-8 3.9-.6.8-3.2 1.9-5.8 2.6-2.6.6-6.7 2.5-9.1 4.1-4.2 2.8-4.9 2.9-15.5 2.9-9.1 0-11.6-.3-14.1-1.9-7.2-4.5-28.4-28.1-32.8-36.7-.8-1.6-2.5-3.8-3.7-4.9-1.2-1.1-2.8-3.5-3.6-5.3-.7-1.9-2.5-4.7-3.9-6.4-1.4-1.6-2.5-3.6-2.5-4.3 0-.7-1.1-2.7-2.5-4.3-1.3-1.6-3.3-4.9-4.4-7.3-5.6-12.5-18.8-18.5-31.6-14.5z"/><path d="M253.4 137.8c-5.5 8.4-17.1 20.8-23 24.5-4.1 2.5-7.1 7.5-6.1 10 .3.8 3.2 1.9 6.5 2.6 3.3.6 6.5 1.8 7.2 2.5.6.8 3.2 2.4 5.8 3.6 2.6 1.2 5.6 3 6.7 4 1.1 1 4.2 2.8 6.9 4 2.7 1.1 6.1 3.1 7.7 4.5 1.6 1.3 3.8 2.6 4.8 3 1.1.3 2.9 2.1 4.1 4 2 3.2 2 4.6 2.3 69.7.3 61.9.5 66.7 2.2 71.8 1.9 5.3 2 11.7 2.5 151.5l.5 146 3.2 5c4.9 7.6 10.1 12.2 16.4 14.5 3.1 1.1 6.2 2.7 6.9 3.5 1.8 2.1 3.8 1.9 7.2-1 1.6-1.3 4.7-2.9 6.8-3.5 2.4-.6 5.8-2.9 8.5-5.5 3.9-3.8 4.7-5.2 5.6-10.2.6-3.5.9-53.6.9-128.6 0-84.3.3-123.4 1-124.7 1.2-2.3 6.8-2.8 8.8-.8.9.9 1.2 29 1.2 120.2 0 131.3.3 139.7 4.9 142.1 1.4.7 3.5 2.3 4.6 3.5 1.1 1.2 4.3 3.2 7 4.5 2.8 1.2 5.6 2.9 6.4 3.8 1.8 2.3 5.4 2.1 7.6-.3.9-1 4.1-2.6 6.9-3.5 6.5-1.9 11.6-7 16.2-16.1l3.4-6.8V495.1c0-133.7.1-141.2 1.9-152.1 3.5-20.8 4.3-34.7 4.8-84.4.4-27 .6-50.5.5-52.3-.1-4.6-1.7-7-6.5-9.4-2.3-1.2-5.1-3-6.2-4-1.1-1-3.8-2.5-6-3.4-2.2-1-4.9-2.5-6-3.5-1.1-1.1-3.8-2.6-6-3.5-2.2-1-5-2.7-6.3-3.8-1.8-1.7-3.6-2.2-7.5-2.2-4.4.1-6.1.7-11.3 4.3-3.4 2.3-6.7 4.9-7.4 5.7-2 2.4-1.9 2.5-13.3-7.5-3.6-3.1-4.6-3.5-9.7-3.5-5 0-6.1.4-9.4 3.2-3.8 3.4-6.4 4-9.7 2.3-2.4-1.3-2.4-3-.2-6.8 2.5-4.3 1-7.7-5.2-12.1-6.4-4.6-11.3-9.4-15.2-15.1-4.6-6.6-11.3-12-11.3-9.1 0 .5-1.3 1.4-2.9 2.1-4 1.6-10.4.4-14-2.6l-2.9-2.4-1.8 2.8zM120 142.9c-.5 1.1-3.4 2.9-6.3 4-7.2 2.6-14.4 7.6-16.2 11.1-.8 1.6-2.4 3.5-3.6 4.4-3.4 2.3-3.2 11.1.2 15.7 1.4 1.9 3.3 4.8 4.3 6.6 1.2 2.4 2.7 3.5 5.9 4.4 2.3.6 5.9 2 7.9 3.2 2.7 1.4 4.1 1.7 5 1 .7-.6 4.5-2.1 8.3-3.2 3.9-1.2 8.6-3.2 10.5-4.5 1.9-1.2 5.9-3 8.8-4 5.9-1.9 14.7-8.1 14.7-10.4 0-.9-1.9-2-5.4-2.8-2.9-.8-6.9-2.7-8.8-4.2-5.8-4.5-19.9-18.5-21.2-21-1.4-2.7-2.7-2.8-4.1-.3zM559 151.6c-5.8 5.7-11.6 11.5-13 12.9-1.4 1.4-4.8 3-7.9 3.7-9.3 2.1-8.3 4.4 4.6 10.7 4.8 2.3 11 5.4 13.6 6.7 2.7 1.4 8.4 3.6 12.7 4.9l7.8 2.5 8.1-2.6c7.8-2.6 8.2-2.9 11.1-8 1.6-2.9 3.4-5.5 4-5.9.5-.3 1-2.8 1-5.4 0-3.8-.8-5.9-4-10.9-2.2-3.4-4.5-6.2-5-6.2s-2.4-1.3-4.2-2.9c-1.8-1.6-5.2-3.4-7.4-4-2.2-.6-5.1-2.2-6.4-3.6-1.3-1.4-2.8-2.5-3.4-2.4-.6 0-5.8 4.7-11.6 10.5z"/></svg>