<?xml version="1.0" standalone="no"?>
<!DOCTYPE svg PUBLIC "-//W3C//DTD SVG 20010904//EN"
 "http://www.w3.org/TR/2001/REC-SVG-20010904/DTD/svg10.dtd">
<svg version="1.0" xmlns="http://www.w3.org/2000/svg"
 width="303.000000pt" height="303.000000pt" viewBox="0 0 303.000000 303.000000"
 preserveAspectRatio="xMidYMid meet">
<metadata>
Created by potrace 1.11, written by Peter Selinger 2001-2013
</metadata>
<g transform="translate(0.000000,303.000000) scale(0.100000,-0.100000)"
fill="#000000" stroke="none">
<path d="M1694 2369 c-3 -5 2 -9 10 -9 9 0 16 -6 16 -12 0 -9 4 -8 10 2 5 8
10 11 10 5 0 -5 12 -11 28 -12 25 -3 61 -9 72 -13 3 -1 8 -2 12 -1 4 0 31 -4
60 -10 29 -6 58 -12 65 -13 7 -1 15 -5 19 -8 3 -4 12 -4 20 -1 8 3 14 0 14 -7
0 -6 4 -9 9 -6 8 6 122 -23 131 -33 6 -7 29 -13 48 -14 6 0 12 -5 12 -10 0 -5
6 -7 14 -4 8 3 20 -2 28 -11 11 -13 11 -14 -2 -7 -13 8 -38 13 -85 18 -11 1
-26 7 -33 14 -7 7 -19 10 -27 7 -8 -4 -15 -2 -15 3 0 8 -9 10 -67 14 -16 1
-32 4 -38 8 -5 3 -20 6 -31 6 -12 0 -29 6 -37 13 -11 9 -17 10 -22 2 -5 -8
-14 -6 -30 4 -17 12 -26 13 -31 4 -4 -6 -3 -8 3 -5 6 4 13 1 16 -7 6 -15 23
-16 43 -3 7 4 14 1 17 -7 3 -7 20 -16 39 -19 18 -3 51 -10 73 -17 22 -6 56
-13 75 -17 19 -3 40 -9 46 -14 6 -5 20 -10 31 -12 11 -1 32 -10 46 -20 15 -9
31 -17 37 -17 6 0 22 -7 35 -16 14 -9 25 -13 25 -8 0 4 10 -2 23 -14 12 -11
33 -26 47 -32 45 -20 67 -35 103 -73 20 -20 39 -37 41 -37 5 0 66 -60 66 -65
0 -2 13 -18 29 -36 28 -30 33 -72 7 -50 -9 7 -22 2 -44 -19 -18 -16 -32 -26
-32 -22 0 4 -4 2 -8 -3 -8 -13 -73 -59 -84 -61 -5 -1 -10 -3 -13 -4 -3 -1 -9
-3 -14 -4 -5 0 -13 -4 -17 -8 -12 -13 -62 -9 -71 5 -10 15 -13 67 -4 67 7 0
33 62 37 90 2 8 -4 25 -12 38 -11 17 -24 22 -59 22 -24 0 -54 -4 -67 -9 -13
-5 -27 -9 -32 -9 -5 0 -12 -4 -15 -9 -12 -16 -101 -74 -101 -66 0 4 -6 1 -13
-7 -20 -26 -142 -109 -177 -122 -44 -15 -50 -2 -45 99 4 81 2 89 -27 84 -5 0
-8 3 -8 8 0 14 -36 2 -59 -20 -12 -11 -21 -17 -21 -13 0 4 -9 -4 -21 -17 -11
-13 -38 -43 -59 -65 -22 -23 -36 -44 -33 -48 4 -3 -1 -6 -9 -6 -11 0 -15 10
-14 40 1 22 4 40 7 40 12 0 1 53 -14 67 -16 17 -67 25 -67 11 0 -5 -4 -6 -10
-3 -5 3 -45 -30 -88 -75 -44 -44 -82 -80 -85 -80 -8 0 25 74 35 78 4 2 4 10 1
19 -4 10 -2 14 4 10 16 -10 10 57 -7 70 -11 8 -20 8 -35 0 -24 -13 -45 -39
-39 -49 3 -5 0 -8 -5 -8 -6 0 -10 -3 -10 -7 4 -24 -3 -44 -13 -42 -24 3 -33
-1 -68 -32 -75 -65 -144 -105 -183 -106 -20 0 -40 4 -44 10 -10 17 -11 81 -1
100 5 10 11 28 13 40 3 12 9 31 14 42 8 17 19 46 26 65 3 9 18 45 42 99 27 62
29 87 8 95 -33 12 -86 -34 -77 -66 1 -5 -2 -8 -8 -8 -5 0 -10 -4 -10 -9 0 -5
-5 -22 -11 -38 -6 -15 -11 -29 -11 -30 -1 -8 -45 -111 -53 -124 -16 -26 -131
-106 -179 -124 -63 -24 -90 -18 -94 22 -2 17 5 47 14 65 25 46 29 92 9 112
-21 21 -103 21 -133 0 -12 -8 -22 -12 -22 -9 0 3 -20 -8 -44 -24 -103 -71
-178 -181 -169 -248 3 -21 9 -40 15 -42 5 -1 14 -9 21 -16 9 -9 18 -10 34 -2
16 7 27 6 38 -3 13 -11 14 -10 9 6 -4 10 -4 16 0 12 8 -6 115 56 127 74 3 5
23 -2 43 -16 30 -20 46 -24 86 -21 47 4 150 50 150 68 0 4 5 7 11 7 6 0 17 7
26 15 19 20 34 10 29 -19 -5 -29 28 -86 55 -93 10 -3 19 -9 19 -13 0 -12 84
-4 110 10 14 8 27 15 30 15 15 2 91 58 126 93 23 24 41 35 41 27 0 -8 -3 -15
-7 -15 -4 0 -7 -6 -8 -12 -1 -7 -4 -32 -7 -56 -7 -50 6 -72 41 -72 16 0 41 20
81 66 80 91 133 145 133 137 0 -5 4 -2 9 6 14 23 30 3 22 -27 -4 -15 -9 -52
-10 -84 -2 -59 7 -72 52 -64 21 3 77 53 77 67 0 6 5 7 10 4 6 -3 10 -2 10 4 0
11 89 111 100 111 3 0 6 -26 5 -57 -1 -32 2 -70 8 -85 8 -25 14 -30 33 -27 4
0 11 -5 15 -13 6 -8 9 -9 9 -1 0 6 8 10 18 8 18 -2 113 41 123 57 10 15 16 -3
14 -37 -3 -37 11 -65 30 -65 8 0 15 -5 15 -10 0 -7 6 -7 20 0 11 6 20 8 20 5
0 -3 13 1 29 9 16 9 31 12 35 9 3 -4 6 -1 6 5 0 6 9 14 20 17 11 4 33 18 50
31 l29 25 23 -20 c26 -25 22 -23 78 -26 50 -3 91 14 185 77 60 40 107 87 99
99 -2 4 2 12 10 18 10 9 17 2 34 -32 22 -46 34 -77 36 -92 1 -5 6 -30 11 -55
12 -61 13 -101 3 -122 -5 -10 -5 -18 0 -18 5 0 8 -8 7 -17 -4 -31 -24 -73 -35
-73 -6 0 -8 -4 -5 -10 3 -5 2 -10 -3 -10 -4 0 -16 -17 -26 -37 -35 -74 -148
-184 -265 -258 -50 -32 -91 -62 -91 -67 0 -5 -4 -6 -10 -3 -5 3 -10 2 -10 -3
0 -5 -6 -9 -12 -10 -7 -1 -24 -3 -38 -5 -14 -1 -29 -5 -35 -8 -5 -4 -22 -9
-37 -13 -15 -3 -40 -11 -55 -18 -34 -14 -40 -15 -78 -23 -16 -3 -48 -11 -70
-17 -56 -16 -64 -17 -120 -20 -27 -2 -53 -7 -57 -13 -5 -6 -8 -5 -8 2 0 9 -7
10 -22 4 -13 -4 -43 -6 -68 -4 -117 8 -170 9 -170 4 0 -4 -18 -6 -40 -6 -22 0
-40 2 -40 5 0 3 -26 6 -58 8 -68 3 -131 11 -152 19 -8 4 -26 7 -40 9 -14 1
-25 3 -25 4 0 1 -9 3 -20 5 -11 2 -40 9 -65 15 -25 6 -53 13 -62 15 -9 2 -26
9 -37 15 -12 6 -21 8 -21 5 0 -3 -11 2 -25 11 -14 9 -28 14 -32 11 -3 -4 -18
2 -32 12 -14 10 -32 16 -38 14 -7 -3 -13 0 -13 5 0 5 -21 19 -47 31 -53 24
-80 40 -101 59 -18 16 -19 15 -17 -8 1 -10 12 -30 26 -42 34 -33 36 -57 4 -50
-14 2 -25 7 -25 11 0 4 -10 7 -22 8 -11 1 -25 8 -29 15 -5 7 -9 9 -9 5 0 -9
-93 52 -98 65 -2 4 -8 8 -13 8 -5 0 -33 25 -63 55 -29 30 -62 55 -73 55 -10 0
-35 14 -56 31 -20 17 -37 28 -37 25 0 -10 52 -88 72 -111 10 -11 32 -35 48
-52 61 -67 278 -211 294 -196 4 4 11 1 16 -7 9 -13 10 -13 10 0 0 9 3 11 8 5
8 -12 76 -39 212 -86 132 -46 145 -49 173 -49 15 0 27 -3 27 -7 0 -5 17 -9 38
-10 37 -3 77 -10 77 -14 0 -1 11 -2 25 -3 14 -1 43 -6 65 -10 54 -11 105 -13
105 -3 0 4 10 2 22 -4 17 -9 23 -9 26 0 2 6 9 8 15 4 17 -11 111 -9 119 2 5 6
8 5 8 -3 0 -7 5 -10 11 -6 6 3 41 8 78 10 36 2 82 6 101 10 19 3 51 7 70 9 79
8 140 18 140 25 0 3 15 7 33 8 60 3 77 6 77 14 0 4 3 7 8 6 4 -1 23 2 42 7 19
5 40 9 45 10 23 3 70 19 75 25 10 14 50 22 50 10 0 -6 -4 -8 -10 -5 -5 3 -10
1 -10 -5 0 -6 -4 -8 -10 -5 -5 3 -10 1 -10 -4 0 -6 -6 -11 -14 -11 -8 0 -25
-4 -38 -9 -13 -5 -26 -9 -30 -10 -4 -1 -26 -8 -48 -16 -22 -8 -42 -14 -45 -15
-3 0 -7 -1 -10 -1 -3 -1 -9 -3 -15 -4 -5 -1 -11 -3 -12 -4 -2 -2 -14 -4 -28
-6 -48 -7 -80 -14 -90 -20 -11 -7 -120 -16 -217 -18 -35 -1 -63 -5 -63 -9 0
-4 -9 -5 -19 -3 -11 2 -25 -3 -32 -11 -8 -10 -8 -14 0 -14 6 0 11 5 11 10 0 7
6 7 20 0 15 -8 20 -8 20 1 0 8 4 9 13 0 8 -6 17 -8 20 -4 4 3 7 1 7 -6 0 -7
10 -10 25 -7 14 3 23 1 21 -3 -7 -10 -87 -8 -105 4 -9 5 -12 4 -7 -3 8 -13
-211 -11 -233 3 -10 6 -12 4 -6 -5 6 -9 2 -10 -16 -4 -13 4 -35 9 -49 10 -14
2 -56 7 -95 12 -38 5 -73 8 -77 6 -3 -2 -8 0 -10 5 -1 6 -25 11 -53 11 -76 2
-214 32 -241 52 -6 4 -13 5 -17 2 -3 -3 -20 1 -39 9 -18 8 -49 20 -68 27 -19
7 -54 21 -77 31 -24 11 -50 19 -58 19 -8 0 -15 4 -15 9 0 5 -16 15 -35 22 -19
7 -35 17 -35 21 0 4 -6 8 -13 8 -7 0 -23 9 -35 20 -12 12 -22 18 -22 15 0 -3
-6 -1 -13 4 -50 42 -76 61 -81 61 -6 0 -119 113 -149 150 -36 43 -94 145 -90
158 3 6 -1 12 -8 12 -7 0 -10 3 -6 6 3 3 -3 22 -14 41 -11 19 -15 32 -10 29 6
-4 6 5 1 24 -5 17 -9 33 -9 35 -1 3 -1 8 -2 13 -1 4 0 22 1 40 2 32 -12 43
-26 20 -5 -7 -3 -8 6 -3 9 6 11 4 5 -5 -5 -8 -7 -37 -5 -64 1 -28 3 -61 3 -73
1 -13 5 -23 10 -23 4 0 6 -4 2 -9 -3 -5 -1 -12 4 -16 5 -3 8 -14 6 -25 -2 -11
0 -20 6 -20 5 0 8 -3 7 -7 -1 -5 3 -18 10 -30 8 -15 9 -23 2 -23 -5 0 -10 7
-10 15 0 8 -4 15 -8 15 -9 0 -37 64 -33 76 2 4 -2 10 -8 14 -7 3 -13 22 -15
42 -2 19 -6 40 -9 46 -6 9 -19 94 -20 130 0 17 -24 15 -31 -4 -3 -8 -9 -13
-14 -10 -4 2 -8 -24 -8 -59 0 -35 3 -62 7 -60 3 3 10 -14 14 -38 8 -40 9 -47
15 -64 1 -5 2 -11 1 -15 0 -5 3 -8 8 -8 5 0 8 -8 7 -17 -2 -10 2 -21 8 -25 6
-4 11 -11 12 -15 1 -17 38 -83 46 -83 4 0 8 -7 8 -15 0 -8 5 -15 12 -15 6 0 9
-3 6 -6 -6 -5 54 -75 102 -120 63 -59 90 -80 160 -125 41 -27 80 -53 86 -58 6
-4 27 -14 47 -22 20 -7 37 -17 37 -21 0 -4 4 -8 9 -8 5 0 26 -8 47 -17 22 -9
41 -17 44 -18 3 0 19 -5 35 -12 57 -21 70 -26 82 -29 15 -3 83 -24 103 -31 8
-3 24 -6 35 -7 11 -1 25 -4 30 -7 6 -4 20 -5 33 -4 12 1 22 -1 22 -5 0 -4 7
-7 16 -7 15 0 15 2 -1 13 -9 7 -24 10 -33 7 -10 -4 -13 -2 -8 6 4 6 4 11 -1
10 -19 -3 -33 2 -33 12 0 8 5 8 15 -1 8 -7 15 -10 15 -6 0 3 16 0 35 -8 39
-17 36 -16 66 -16 13 0 18 -4 13 -12 -6 -10 -5 -10 8 -1 8 7 17 10 20 7 4 -3
21 -8 40 -11 18 -2 35 -9 36 -14 2 -5 12 -9 23 -9 10 0 19 -6 19 -12 0 -8 3
-9 8 -3 11 15 42 12 52 -5 8 -13 10 -12 10 3 0 17 1 17 16 3 8 -9 21 -16 27
-16 7 0 6 5 -3 11 -12 9 -11 9 5 3 33 -13 138 -14 154 -1 10 8 13 9 8 1 -5 -9
31 -12 137 -10 79 0 142 4 140 7 -2 4 3 10 12 13 9 4 13 2 8 -5 -4 -6 4 -5 17
2 13 7 49 14 79 15 60 2 122 10 150 19 10 3 29 8 42 10 63 12 78 17 78 27 0 6
3 9 6 5 4 -3 36 6 73 20 36 14 72 25 79 26 6 0 12 4 12 8 0 7 46 22 54 17 2
-2 12 4 22 13 11 9 29 20 42 23 12 4 22 12 22 17 0 5 4 8 8 6 4 -1 46 23 93
53 46 30 88 57 93 59 22 9 184 179 214 224 43 64 92 170 99 217 2 13 8 27 12
30 12 8 14 180 2 180 -6 0 -11 11 -11 25 0 14 -4 33 -8 43 -62 126 -83 161
-127 215 -53 65 -163 162 -202 180 -13 6 -23 13 -23 16 0 4 -17 15 -37 26 -21
11 -40 22 -43 25 -7 8 -173 90 -181 90 -4 0 -24 8 -45 17 -22 9 -43 18 -49 19
-5 1 -37 12 -69 23 -66 23 -86 26 -86 11 0 -5 4 -10 9 -10 5 0 26 -8 47 -17
22 -9 42 -16 45 -15 3 0 6 -5 6 -13 0 -10 -5 -11 -19 -4 -10 5 -23 7 -28 4 -6
-3 -10 -1 -10 4 0 6 -9 11 -19 11 -11 0 -23 5 -26 10 -4 6 -11 8 -16 5 -5 -4
-15 -3 -21 2 -7 4 -24 9 -38 11 -14 1 -32 5 -40 9 -8 3 -23 7 -32 8 -10 2 -19
3 -20 5 -3 2 -15 4 -81 13 -21 3 -44 10 -50 15 -15 12 -145 13 -153 1z m-1071
-512 c8 5 8 2 0 -9 -7 -8 -10 -18 -6 -21 3 -4 -1 -15 -10 -25 -10 -10 -15 -21
-12 -23 11 -12 -101 -111 -131 -115 -6 -1 -21 -5 -32 -8 -11 -4 -23 -3 -26 2
-8 13 50 101 92 140 43 40 106 74 110 61 2 -5 9 -6 15 -2z m1690 -11 c15 -38
-71 -144 -145 -179 -61 -29 -79 -17 -53 32 13 26 93 111 136 146 19 16 56 16
62 1z m620 -502 c-9 -21 -16 -42 -15 -46 1 -5 -2 -8 -8 -8 -5 0 -10 -5 -10
-10 0 -21 -124 -146 -205 -209 -22 -17 -44 -34 -50 -39 -41 -31 -146 -85 -175
-89 -29 -4 -21 3 45 37 44 23 95 53 113 66 17 14 37 22 42 19 6 -4 9 -2 8 3
-2 5 17 26 42 47 24 20 52 46 62 57 9 11 22 17 27 13 6 -3 9 0 6 7 -3 7 8 28
25 46 16 18 30 36 30 39 0 3 9 18 21 34 11 16 17 29 14 29 -3 0 4 14 16 32 28
39 35 24 12 -28z m-2733 -103 c0 -16 134 -161 148 -161 4 0 18 -13 32 -30 14
-16 30 -30 37 -30 7 0 13 -4 13 -10 0 -5 7 -10 15 -10 8 0 15 -4 15 -10 0 -5
7 -10 15 -10 8 0 15 -4 15 -8 0 -5 18 -17 40 -28 22 -10 40 -22 40 -26 0 -6
60 -29 90 -34 8 -2 16 -8 18 -13 2 -6 10 -11 18 -11 8 0 14 -3 14 -8 0 -11 58
-34 70 -27 5 3 10 2 10 -3 0 -5 9 -12 20 -15 11 -3 20 -11 20 -19 0 -10 -3 -9
-10 2 -5 8 -10 11 -10 6 0 -5 -7 -3 -15 4 -9 7 -18 10 -22 6 -3 -3 -17 1 -30
9 -13 9 -29 13 -35 9 -7 -4 -8 -3 -4 4 4 7 1 12 -9 12 -18 0 -147 59 -155 71
-3 5 -15 12 -26 16 -38 15 -184 118 -184 130 0 6 -8 14 -17 18 -25 8 -136 142
-138 164 -1 10 5 18 12 18 7 0 13 -7 13 -16z m2230 -318 c0 -1 -9 -7 -20 -13
-16 -8 -20 -8 -20 4 0 9 8 14 20 13 11 -1 20 -2 20 -4z m-1560 -144 c0 -4 -7
-6 -15 -3 -8 4 -15 10 -15 15 0 4 7 6 15 3 8 -4 15 -10 15 -15z m75 -18 c3 -5
0 -13 -6 -17 -7 -4 -9 -3 -5 4 3 5 0 13 -6 15 -9 4 -10 6 -1 6 6 1 14 -3 18
-8z m945 -25 c0 -9 -30 -14 -35 -6 -4 6 3 10 14 10 12 0 21 -2 21 -4z m-105
-74 c-3 -3 -11 0 -18 7 -9 10 -8 11 6 5 10 -3 15 -9 12 -12z"/>
<path d="M870 2330 c-8 -5 0 -7 18 -7 17 1 29 4 26 6 -8 9 -31 9 -44 1z"/>
<path d="M830 2309 c0 -5 5 -7 10 -4 6 3 10 8 10 11 0 2 -4 4 -10 4 -5 0 -10
-5 -10 -11z"/>
<path d="M784 2302 c4 -3 14 -7 22 -8 9 -1 13 0 10 4 -4 3 -14 7 -22 8 -9 1
-13 0 -10 -4z"/>
<path d="M1790 2299 c0 -4 6 -9 13 -12 8 -3 14 0 14 7 0 7 -6 13 -14 13 -7 0
-13 -4 -13 -8z"/>
<path d="M730 2276 c-6 -8 -17 -13 -24 -10 -7 3 -19 -2 -26 -10 -7 -9 -16 -14
-20 -11 -4 3 -13 -2 -20 -10 -9 -10 -9 -15 -1 -15 6 0 11 5 11 11 0 5 4 8 9 4
5 -3 12 -1 16 5 4 6 11 7 17 4 7 -5 8 -2 3 6 -6 10 -4 12 8 7 9 -3 19 -2 22 4
4 5 11 6 17 3 7 -5 8 -2 3 6 -6 10 -3 12 13 8 12 -4 20 -2 16 3 -8 14 -30 11
-44 -5z"/>
<path d="M113 1643 c4 -3 2 -11 -3 -18 -7 -8 -5 -12 5 -12 8 0 15 9 15 19 0
10 -5 18 -12 18 -6 0 -8 -3 -5 -7z"/>
<path d="M2200 1561 c10 -7 11 -11 3 -11 -7 0 -13 -4 -13 -10 0 -5 6 -10 14
-10 18 0 14 33 -5 38 -11 3 -11 1 1 -7z"/>
<path d="M429 1533 c-13 -16 -12 -17 4 -4 10 8 17 9 17 3 0 -6 -5 -14 -10 -17
-6 -4 -8 -11 -5 -16 4 -5 3 -9 -2 -10 -4 0 -16 -2 -25 -4 -10 -2 -18 1 -18 6
0 6 -9 5 -21 -1 -11 -7 -23 -9 -25 -7 -9 9 -56 -42 -49 -52 3 -6 2 -11 -3 -11
-13 0 -6 -54 7 -58 6 -2 9 -8 5 -13 -3 -5 2 -9 10 -9 9 0 16 -8 17 -17 0 -12
2 -13 6 -5 3 7 -3 22 -13 33 -22 25 -27 89 -7 89 8 0 12 4 9 9 -3 5 8 14 24
21 24 10 33 10 45 0 8 -7 15 -9 15 -4 0 4 5 3 12 -4 12 -12 20 -102 8 -102 -3
0 -6 -11 -6 -25 0 -23 1 -23 18 -8 20 17 24 28 8 18 -5 -3 -10 -1 -10 4 0 6 4
11 8 11 13 0 6 88 -8 105 -11 13 -10 14 5 9 15 -6 16 -4 7 13 -8 14 -8 23 0
31 8 8 9 15 2 22 -8 8 -15 5 -25 -7z"/>
<path d="M2302 1538 c2 -6 11 -12 20 -14 11 -1 15 3 11 12 -6 17 -36 19 -31 2z"/>
<path d="M1620 1519 c0 -7 -7 -20 -16 -30 -12 -13 -12 -19 -3 -25 7 -4 10 -3
5 4 -3 6 -2 13 4 17 6 3 10 -4 11 -17 1 -13 2 -36 3 -53 0 -16 -2 -32 -6 -35
-4 -3 0 -20 9 -38 11 -23 18 -29 24 -20 4 7 3 15 -2 19 -13 8 -19 58 -8 65 5
2 4 16 -1 29 -9 24 1 33 48 41 8 1 17 5 20 9 4 3 -6 4 -21 1 -36 -6 -57 2 -51
19 3 7 1 16 -5 20 -6 3 -11 1 -11 -6z"/>
<path d="M2194 1503 c3 -7 1 -13 -4 -13 -5 0 -6 -12 -3 -27 16 -87 1 -132 -44
-128 -14 1 -19 -3 -16 -12 3 -8 10 -10 17 -5 6 5 25 8 41 8 30 -2 30 -1 29 49
0 29 -4 57 -7 62 -4 6 -1 14 5 16 9 4 9 6 1 6 -8 1 -9 10 -3 29 6 22 4 29 -7
29 -7 0 -12 -6 -9 -14z"/>
<path d="M585 1490 c-4 -6 -11 -8 -16 -5 -15 10 -10 -1 7 -15 12 -11 15 -11
12 0 -2 7 3 15 11 18 9 3 11 0 6 -9 -5 -8 -5 -11 0 -7 11 10 30 -13 32 -38 1
-18 -3 -21 -27 -18 -16 2 -32 -1 -35 -6 -4 -6 -11 -8 -16 -5 -5 4 -9 1 -9 -4
0 -13 17 -14 24 -2 8 12 68 4 77 -10 4 -7 -4 -23 -17 -36 -26 -26 -64 -39 -64
-21 0 6 -3 8 -6 5 -4 -3 -16 -1 -27 5 -18 9 -18 11 -4 19 9 5 14 16 10 25 -4
11 -9 12 -18 4 -15 -12 -14 -26 1 -54 14 -23 91 -27 105 -5 8 12 10 12 20 -1
9 -12 10 -11 6 8 -3 12 -1 22 4 22 12 0 7 32 -6 43 -7 5 -7 10 0 15 13 10 18
35 5 27 -5 -3 -10 0 -10 8 0 8 -11 22 -25 31 -29 19 -32 19 -40 6z"/>
<path d="M1003 1493 c-15 -5 -17 -23 -4 -23 5 0 11 7 15 15 3 8 4 15 3 14 -1
0 -8 -3 -14 -6z"/>
<path d="M1461 1495 c-1 -6 -10 -11 -21 -12 -22 -2 -50 -25 -50 -42 0 -17 43
-41 72 -41 16 0 28 -4 28 -10 0 -5 3 -9 8 -9 24 4 33 -3 30 -23 -2 -13 -9 -22
-17 -20 -7 1 -18 -2 -25 -7 -14 -12 -33 -9 -65 8 -13 7 -21 8 -17 3 3 -6 1
-12 -6 -14 -7 -3 -5 -7 6 -11 10 -4 15 -3 11 3 -3 6 -2 10 4 10 5 0 13 -5 16
-10 4 -6 11 -8 16 -5 5 4 9 1 9 -4 0 -7 6 -8 18 -2 9 5 29 14 45 20 16 6 27
18 27 30 0 21 -23 45 -33 34 -4 -3 -7 -1 -7 5 0 7 -3 11 -7 11 -5 -1 -10 -1
-13 1 -3 1 -18 3 -34 5 -37 5 -50 24 -29 47 16 18 33 19 45 3 5 -6 8 -5 8 3 0
6 6 12 14 12 8 0 16 -6 19 -12 2 -7 8 -9 13 -5 11 11 -17 28 -38 23 -9 -2 -19
1 -22 8 -2 6 -5 7 -5 1z"/>
<path d="M2072 1480 c-18 -9 -30 -19 -26 -23 4 -4 0 -7 -8 -7 -17 0 -31 -24
-21 -34 10 -10 23 -7 23 6 0 21 50 56 75 54 14 -2 22 1 19 9 -6 16 -22 14 -62
-5z"/>
<path d="M2501 1495 c-1 -6 -9 -11 -18 -12 -43 -3 -57 -12 -73 -43 -14 -26
-15 -40 -8 -62 13 -38 31 -36 23 2 -8 37 2 70 21 70 8 0 12 5 9 10 -3 6 1 11
9 11 9 1 25 2 35 3 11 0 23 5 28 10 4 5 3 6 -4 3 -6 -4 -14 -1 -16 5 -3 7 -6
8 -6 3z"/>
<path d="M536 1475 c-3 -8 -1 -15 4 -15 6 0 10 7 10 15 0 8 -2 15 -4 15 -2 0
-6 -7 -10 -15z"/>
<path d="M768 1481 c-20 -7 -53 -41 -39 -41 7 0 9 -4 6 -10 -3 -5 -2 -10 3
-10 6 0 13 11 16 25 4 14 11 23 16 20 6 -3 10 -2 10 3 0 9 21 8 57 -3 17 -6
21 -13 18 -36 -2 -19 1 -29 10 -29 16 0 10 57 -8 75 -12 11 -64 14 -89 6z"/>
<path d="M1025 1481 c-3 -5 0 -13 6 -17 8 -4 9 -3 5 4 -11 17 5 14 26 -5 22
-20 24 -11 2 11 -18 18 -30 20 -39 7z"/>
<path d="M1138 1468 c-13 -11 -22 -24 -20 -29 1 -5 -2 -9 -7 -9 -16 0 -1 -64
19 -81 11 -9 16 -20 12 -24 -4 -3 -2 -6 3 -5 6 1 12 1 15 0 20 -7 39 -7 34 2
-3 5 -8 7 -11 4 -9 -8 -54 38 -49 51 3 7 -3 17 -12 23 -14 8 -11 10 14 6 17
-2 38 0 45 5 10 7 6 8 -12 5 -41 -7 -53 7 -29 34 11 13 20 20 20 15 0 -4 7 -2
15 5 24 20 75 -8 75 -41 0 -16 6 -26 15 -26 11 0 12 4 4 14 -9 10 -8 13 2 13
9 0 10 3 3 8 -6 4 -16 16 -21 27 -16 27 -85 29 -115 3z"/>
<path d="M2150 1480 c0 -5 5 -10 10 -10 6 0 10 5 10 10 0 6 -4 10 -10 10 -5 0
-10 -4 -10 -10z"/>
<path d="M2540 1476 c0 -9 3 -15 8 -14 14 3 42 -14 36 -23 -3 -5 -1 -9 4 -9 5
0 8 -12 6 -27 -1 -16 -2 -34 -3 -42 -1 -8 -4 -12 -7 -8 -4 3 -13 -1 -21 -9 -9
-8 -22 -13 -30 -10 -8 3 -11 2 -8 -4 10 -16 -49 -6 -66 12 -9 10 -19 15 -23
11 -11 -12 -6 -22 17 -29 31 -11 97 -12 97 -2 0 4 3 7 8 6 28 -6 84 63 62 77
-6 4 -8 10 -5 15 3 5 -6 21 -20 36 -14 15 -25 23 -25 19 0 -4 -7 -2 -15 5 -12
10 -15 10 -15 -4z"/>
<path d="M955 1464 c-12 -9 -19 -26 -19 -48 0 -19 -4 -32 -9 -29 -5 3 2 -11
15 -30 12 -20 25 -35 28 -35 3 0 7 -1 10 -2 16 -6 70 -5 70 2 0 4 4 7 9 6 8
-3 11 2 11 17 0 3 -11 -2 -25 -11 -18 -12 -25 -13 -25 -4 0 10 -3 10 -15 0
-12 -10 -16 -9 -21 4 -3 9 -10 13 -15 11 -11 -7 -23 40 -15 60 3 9 2 13 -4 10
-6 -3 -10 -1 -10 4 0 6 4 11 10 11 10 0 34 39 28 45 -2 2 -12 -3 -23 -11z"/>
<path d="M1755 1470 c-3 -5 -2 -10 4 -10 6 0 7 -11 3 -27 -18 -70 12 -124 63
-113 40 9 65 11 95 11 19 -1 30 2 25 7 -6 4 -11 37 -10 75 0 42 -3 66 -10 64
-5 -2 -10 -29 -9 -59 1 -64 -15 -80 -81 -84 -36 -2 -42 1 -53 25 -7 15 -10 46
-7 69 5 39 -7 64 -20 42z"/>
<path d="M2305 1470 c-3 -5 0 -10 7 -10 8 0 9 -3 3 -8 -5 -4 -10 -20 -10 -37
0 -16 5 -33 10 -37 6 -5 4 -8 -5 -8 -13 0 -13 -1 0 -11 11 -8 12 -12 2 -16
-13 -5 -7 -23 9 -23 5 0 8 36 8 80 -1 74 -8 95 -24 70z"/>
<path d="M727 1397 c-3 -8 3 -13 17 -14 11 0 15 1 8 4 -6 3 -10 9 -6 14 3 5 1
9 -4 9 -6 0 -12 -6 -15 -13z"/>
<path d="M2010 1384 c0 -14 4 -22 10 -19 6 3 10 1 10 -5 0 -16 26 -40 44 -40
8 0 18 -5 21 -10 4 -6 11 -8 16 -4 5 3 7 10 3 15 -3 5 -10 7 -15 4 -12 -8 -72
52 -65 64 3 5 -1 11 -9 15 -11 4 -15 -2 -15 -20z"/>
<path d="M857 1383 c-7 -12 -2 -51 8 -60 4 -5 5 -2 1 5 -4 6 -3 12 3 12 5 0 8
10 6 21 -5 26 -11 33 -18 22z"/>
<path d="M730 1350 c0 -11 4 -20 8 -20 4 0 8 9 8 20 0 11 -4 20 -8 20 -4 0 -8
-9 -8 -20z"/>
<path d="M363 1333 c-7 -3 -13 -9 -13 -14 0 -4 7 -5 17 -2 11 4 14 3 9 -6 -6
-9 -3 -9 13 1 12 7 21 17 21 22 0 4 -6 3 -14 -3 -8 -7 -16 -8 -18 -3 -1 5 -9
7 -15 5z"/>
<path d="M1207 1319 c4 -13 8 -18 11 -10 2 7 -1 18 -6 23 -8 8 -9 4 -5 -13z"/>
<path d="M1230 1330 c0 -5 5 -10 10 -10 6 0 10 5 10 10 0 6 -4 10 -10 10 -5 0
-10 -4 -10 -10z"/>
<path d="M1665 1320 c-3 -5 0 -12 6 -16 8 -5 9 -3 4 6 -6 10 -4 12 8 7 9 -3
18 -3 21 1 3 4 -4 8 -14 9 -11 1 -22 -2 -25 -7z"/>
</g>
</svg>
